<svg width="36" height="36" viewBox="0 0 36 36" fill="none" xmlns="http://www.w3.org/2000/svg">
  <!-- White outer border -->
  <path d="M27 9C28.6569 9 30 10.3431 30 12V19C30 20.6569 28.6569 22 27 22H22L23 30L24 22H11C9.34315 22 8 20.6569 8 19V12C8 10.3431 9.34315 9 11 9H27Z" fill="white" stroke="none"/>
  
  <!-- Dark blue inner border -->
  <path d="M27 10C28.1046 10 29 10.8954 29 12V19C29 20.1046 28.1046 21 27 21H22L23 28L24 21H11C9.89543 21 9 20.1046 9 19V12C9 10.8954 9.89543 10 11 10H27Z" fill="#1e3a8a" stroke="none"/>
  
  <!-- Light blue/cyan fill -->
  <path d="M27 11C27.5523 11 28 11.4477 28 12V19C28 19.5523 27.5523 20 27 20H22L23 26L24 20H11C10.4477 20 10 19.5523 10 19V12C10 11.4477 10.4477 11 11 11H27Z" fill="#7dd3fc" stroke="none"/>
  
  <!-- Eyes -->
  <circle cx="17.5" cy="14.5" r="2" fill="#1e3a8a"/>
  <circle cx="21.5" cy="14.5" r="2" fill="#1e3a8a"/>
  <circle cx="17.5" cy="14.5" r="0.8" fill="white"/>
  <circle cx="21.5" cy="14.5" r="0.8" fill="white"/>
  
  <!-- Mouth -->
  <path d="M15.5 17.5C15.5 18.3284 16.1716 19 17 19H22C22.8284 19 23.5 18.3284 23.5 17.5C23.5 17.2239 23.2761 17 23 17H16C15.7239 17 15.5 17.2239 15.5 17.5Z" fill="#1e3a8a"/>
  
  <!-- Tongue -->
  <ellipse cx="19.5" cy="18.3" rx="1.2" ry="0.8" fill="#ec4899"/>
</svg>
